<?xml version="1.0" encoding="UTF-8" standalone="no"?>
<svg
   xmlns:dc="http://purl.org/dc/elements/1.1/"
   xmlns:cc="http://creativecommons.org/ns#"
   xmlns:rdf="http://www.w3.org/1999/02/22-rdf-syntax-ns#"
   xmlns:svg="http://www.w3.org/2000/svg"
   xmlns="http://www.w3.org/2000/svg"
   xmlns:sodipodi="http://sodipodi.sourceforge.net/DTD/sodipodi-0.dtd"
   xmlns:inkscape="http://www.inkscape.org/namespaces/inkscape"
   version="1.1"
   id="Layer_1"
   x="0px"
   y="0px"
   viewBox="0 0 250 50.000002"
   xml:space="preserve"
   sodipodi:docname="tweet.svg"
   width="250"
   height="50"
   inkscape:version="0.92.5 (2060ec1f9f, 2020-04-08)"><metadata
     id="metadata17"><rdf:RDF><cc:Work
         rdf:about=""><dc:format>image/svg+xml</dc:format><dc:type
           rdf:resource="http://purl.org/dc/dcmitype/StillImage" /><dc:title></dc:title></cc:Work></rdf:RDF></metadata><defs
     id="defs15" /><sodipodi:namedview
     pagecolor="#ffffff"
     bordercolor="#666666"
     borderopacity="1"
     objecttolerance="10"
     gridtolerance="10"
     guidetolerance="10"
     inkscape:pageopacity="0"
     inkscape:pageshadow="2"
     inkscape:window-width="1600"
     inkscape:window-height="845"
     id="namedview13"
     showgrid="false"
     fit-margin-top="10"
     fit-margin-left="10"
     fit-margin-right="10"
     fit-margin-bottom="10"
     inkscape:zoom="1.920573"
     inkscape:cx="81.772901"
     inkscape:cy="0.69086037"
     inkscape:window-x="0"
     inkscape:window-y="0"
     inkscape:window-maximized="1"
     inkscape:current-layer="Layer_1" /><style
     type="text/css"
     id="style2"><![CDATA[
	.st0{fill:#1A91DA;}
	.st1{fill-rule:evenodd;clip-rule:evenodd;fill:#1DA1F2;}
	.st2{fill:#FFFFFF;}
]]></style><rect
     style="opacity:1;fill:#1da1f2;fill-opacity:1;stroke:none;stroke-width:3.7795279;stroke-linecap:round;stroke-miterlimit:4;stroke-dasharray:none;stroke-dashoffset:0;stroke-opacity:1"
     id="rect853"
     width="250"
     height="50"
     x="0"
     y="1.2185303e-06"
     ry="10"
     rx="8.333333" /><path
     style="fill:#ffffff"
     d="m 38.810547,10.449224 c -4.060001,0 -7.34961,3.291561 -7.34961,7.351562 0,0.57 0.05945,1.129922 0.189453,1.669921 C 25.54039,19.160708 20.13,16.239068 16.5,11.789068 c -0.65,1.12 -0.988282,2.401406 -0.988282,3.691406 0,2.549999 1.289532,4.799375 3.269532,6.109374 -1.2,-0.04 -2.340078,-0.369922 -3.330079,-0.919922 v 0.08984 c 0,3.56 2.530391,6.540937 5.900391,7.210937 -0.62,0.170001 -1.271406,0.259766 -1.941406,0.259766 -0.47,0 -0.928672,-0.05086 -1.388672,-0.130859 0.94,2.92 3.649375,5.039376 6.859375,5.109374 -2.52,1.97 -5.680859,3.150391 -9.130859,3.150391 -0.6,0 -1.18,-0.03937 -1.75,-0.109375 3.26,2.09 7.121484,3.300781 11.271484,3.300781 13.52,0 20.919922,-11.199921 20.919922,-20.919921 0,-0.320001 -0.01148,-0.641172 -0.02148,-0.951172 1.44,-1.02 2.681876,-2.309063 3.671876,-3.789063 -1.32,0.59 -2.740704,0.980156 -4.220704,1.160156 1.52,-0.91 2.680469,-2.350312 3.230469,-4.070312 -1.42,0.84 -2.999922,1.449297 -4.669922,1.779297 -1.34,-1.43 -3.251093,-2.310547 -5.371093,-2.310547 z"
     id="path6"
     inkscape:connector-curvature="0" /><g
     aria-label="Tweet #M3"
     style="font-style:normal;font-variant:normal;font-weight:normal;font-stretch:normal;font-size:33.75527573px;line-height:125%;font-family:Caladea;-inkscape-font-specification:Caladea;letter-spacing:0px;word-spacing:0px;fill:#ffffff;fill-opacity:1;stroke:none;stroke-width:1px;stroke-linecap:butt;stroke-linejoin:miter;stroke-opacity:1"
     id="text846"
     transform="translate(-30)"><path
       d="m 101.20833,36.628693 h -2.93671 v -20.72574 h -7.257385 v -2.531645 h 17.518985 l -0.30379,2.531645 h -7.0211 z"
       style="font-style:normal;font-variant:normal;font-weight:normal;font-stretch:normal;font-family:'Fira Mono';-inkscape-font-specification:'Fira Mono';fill:#ffffff;stroke-width:0.39227587px"
       id="path848"
       inkscape:connector-curvature="0" /><path
       d="m 122.4741,36.628693 -2.32911,-13.029537 -2.49789,13.029537 h -3.91561 l -3.20676,-17.789031 h 2.8692 l 2.29536,16.033756 2.83544,-13.772152 h 3.34178 l 2.66666,13.772152 2.29536,-16.033756 h 2.73418 l -3.07173,17.789031 z"
       style="font-style:normal;font-variant:normal;font-weight:normal;font-stretch:normal;font-family:'Fira Mono';-inkscape-font-specification:'Fira Mono';fill:#ffffff;stroke-width:0.39227587px"
       id="path850"
       inkscape:connector-curvature="0" /><path
       d="m 135.80738,28.729958 q 0.10127,2.936709 1.51899,4.421941 1.45148,1.485232 3.64557,1.485232 1.31646,0 2.39663,-0.371308 1.11392,-0.405063 2.36287,-1.21519 l 1.31645,1.890296 q -1.24894,0.978903 -2.8692,1.518987 -1.58649,0.540085 -3.20675,0.540085 -3.8481,0 -6.00844,-2.497891 -2.12658,-2.531645 -2.12658,-6.751055 0,-2.666667 0.94515,-4.759494 0.94515,-2.126582 2.70042,-3.308017 1.75527,-1.21519 4.08439,-1.21519 3.37553,0 5.29958,2.36287 1.9578,2.329114 1.9578,6.379747 0,0.776371 -0.0675,1.518987 z m 4.79325,-7.93249 q -2.05907,0 -3.34177,1.485232 -1.2827,1.451477 -1.45148,4.28692 h 9.24895 q -0.0337,-2.801687 -1.21519,-4.28692 -1.18143,-1.485232 -3.24051,-1.485232 z"
       style="font-style:normal;font-variant:normal;font-weight:normal;font-stretch:normal;font-family:'Fira Mono';-inkscape-font-specification:'Fira Mono';fill:#ffffff;stroke-width:0.39227587px"
       id="path852"
       inkscape:connector-curvature="0" /><path
       d="m 156.0605,28.729958 q 0.10127,2.936709 1.51899,4.421941 1.45148,1.485232 3.64557,1.485232 1.31645,0 2.39662,-0.371308 1.11393,-0.405063 2.36287,-1.21519 l 1.31646,1.890296 q -1.24895,0.978903 -2.8692,1.518987 -1.5865,0.540085 -3.20675,0.540085 -3.8481,0 -6.00844,-2.497891 -2.12658,-2.531645 -2.12658,-6.751055 0,-2.666667 0.94514,-4.759494 0.94515,-2.126582 2.70043,-3.308017 1.75527,-1.21519 4.08439,-1.21519 3.37552,0 5.29957,2.36287 1.95781,2.329114 1.95781,6.379747 0,0.776371 -0.0675,1.518987 z m 4.79325,-7.93249 q -2.05907,0 -3.34177,1.485232 -1.2827,1.451477 -1.45148,4.28692 h 9.24895 q -0.0338,-2.801687 -1.21519,-4.28692 -1.18144,-1.485232 -3.24051,-1.485232 z"
       style="font-style:normal;font-variant:normal;font-weight:normal;font-stretch:normal;font-family:'Fira Mono';-inkscape-font-specification:'Fira Mono';fill:#ffffff;stroke-width:0.39227587px"
       id="path854"
       inkscape:connector-curvature="0" /><path
       d="m 188.19547,35.7173 q -0.91139,0.607595 -2.22785,0.945148 -1.2827,0.337553 -2.5654,0.337553 -2.80169,0 -4.38818,-1.451477 -1.5865,-1.485232 -1.5865,-3.881857 V 21.067511 h -4.08439 v -2.227849 h 4.08439 v -4.016877 l 2.83544,-0.337553 v 4.35443 h 6.17722 l -0.37131,2.227849 h -5.80591 v 10.565401 q 0,1.518987 0.81013,2.261603 0.81012,0.742616 2.59915,0.742616 1.82279,0 3.40929,-0.843882 z"
       style="font-style:normal;font-variant:normal;font-weight:normal;font-stretch:normal;font-family:'Fira Mono';-inkscape-font-specification:'Fira Mono';fill:#ffffff;stroke-width:0.39227587px"
       id="path856"
       inkscape:connector-curvature="0" /><path
       d="m 225.66373,28.729958 h 2.73418 v 2.160338 h -3.07173 l -0.70886,5.738397 h -2.39663 l 0.74262,-5.738397 h -4.89452 l -0.77637,5.738397 h -2.39662 l 0.74261,-5.738397 h -2.66666 v -2.160338 h 2.9367 l 1.04642,-7.493671 h -2.73418 v -2.227848 h 3.00422 l 0.77637,-5.637131 h 2.39663 l -0.77637,5.637131 h 4.92827 l 0.77637,-5.637131 h 2.39662 l -0.77637,5.637131 h 2.70042 v 2.227848 h -3.00422 z m -2.43038,0 1.04641,-7.493671 h -4.96202 l -0.97891,7.493671 z"
       style="font-style:normal;font-variant:normal;font-weight:normal;font-stretch:normal;font-family:'Fira Mono';-inkscape-font-specification:'Fira Mono';fill:#ffffff;stroke-width:0.39227587px"
       id="path858"
       inkscape:connector-curvature="0" /><path
       d="m 250.67634,36.628693 h -2.83545 l -0.70886,-12.1519 Q 246.9295,21.270042 246.9295,16.07173 l -3.91561,16.371308 h -2.93671 L 235.89153,16.07173 q 0.0675,1.21519 0.0675,3.240506 0,3.105486 -0.13502,5.164557 l -0.6076,12.1519 h -2.76793 l 1.31645,-23.257385 h 4.08439 l 3.78059,15.93249 3.61182,-15.93249 h 4.11814 z"
       style="font-style:normal;font-variant:normal;font-weight:normal;font-stretch:normal;font-family:'Fira Mono';-inkscape-font-specification:'Fira Mono';fill:#ffffff;stroke-width:0.39227587px"
       id="path860"
       inkscape:connector-curvature="0" /><path
       d="m 260.76911,13 q 2.12658,0 3.74684,0.810126 1.62025,0.776372 2.49789,2.126583 0.87763,1.316455 0.87763,2.902953 0,2.025317 -1.31645,3.544304 -1.31646,1.485232 -3.20675,1.85654 2.19409,0.168777 3.71308,1.654009 1.55274,1.485232 1.55274,4.050633 0,1.991561 -1.01266,3.611815 -1.01266,1.620253 -2.8692,2.531645 -1.82278,0.911393 -4.18565,0.911393 -2.05907,0 -3.98312,-0.776372 -1.8903,-0.776371 -3.13924,-2.295358 l 1.89029,-1.552743 q 0.94515,1.113924 2.29536,1.721519 1.38397,0.57384 2.8692,0.57384 2.43038,0 3.78059,-1.248946 1.38397,-1.2827 1.38397,-3.476793 0,-4.421941 -4.82701,-4.421941 h -1.92405 l 0.33755,-2.261604 h 1.38397 q 1.82278,0 3.10549,-1.012658 1.2827,-1.046413 1.2827,-3.037975 0,-1.85654 -1.24895,-2.869198 -1.21519,-1.046414 -3.13924,-1.046414 -1.45148,0 -2.59916,0.50633 -1.11392,0.506329 -2.32911,1.620253 l -1.55274,-1.721519 Q 256.98852,13 260.76911,13 Z"
       style="font-style:normal;font-variant:normal;font-weight:normal;font-stretch:normal;font-family:'Fira Mono';-inkscape-font-specification:'Fira Mono';fill:#ffffff;stroke-width:0.39227587px"
       id="path862"
       inkscape:connector-curvature="0" /></g></svg>